<?xml version="1.0" encoding="utf-8"?>
<!-- Generator: Adobe Illustrator 21.0.2, SVG Export Plug-In . SVG Version: 6.00 Build 0)  -->
<svg version="1.1" id="圖層_1" xmlns="http://www.w3.org/2000/svg" xmlns:xlink="http://www.w3.org/1999/xlink" x="0px" y="0px"
	 viewBox="0 0 152.1 40.4" style="enable-background:new 0 0 152.1 40.4;" xml:space="preserve">
<style type="text/css">
	.st0{fill:#3766AF;}
	.st1{fill:#231815;}
	.st2{fill:#3E3A39;stroke:#3E3A39;stroke-width:0.579;stroke-linecap:round;stroke-linejoin:round;stroke-miterlimit:10;}
</style>
<g>
	<g>
		<path class="st0" d="M8.5,8.6L5.4,2.2C4.9,1.1,5.8-0.2,7.1,0l27,5.3c1.4,0.3,2.3,1.6,2,3l-0.6,2.5c-0.3,1.2-1.3,2-2.5,2H0.4
			c-0.5,0-0.6-0.7-0.1-0.9l7.7-2.3C8.5,9.5,8.7,9,8.5,8.6z"/>
		<path class="st0" d="M8.8,40.4c0,0,3,0,3,0c4,0,7.6-1.5,10.2-4.5c1.3-1.5,2.3-3.1,3.1-4.9c0.6-1.2,1-2.6,1.6-3.8
			c0.7-1.4,1.8-2.2,2.8-3.4c2.2-2.6,1.4-5.7,1.4-8.8c0-0.3-0.3-0.6-0.6-0.6h-4.9c-0.3,0-0.6,0.3-0.6,0.6c0,0.9,0.4,1.8,0.4,2.7
			c0,0.5,0,1.1-0.3,1.6c-0.5,0.6-1.3,0.9-1.9,1.3c-0.7,0.5-1.3,1.2-1.7,2c-3.3,6.7-5,12-12.8,12c-1.6,0-2.8,1.3-2.8,2.8
			C6,39.1,7.2,40.4,8.8,40.4z"/>
		<polygon class="st1" points="4.8,25 7.8,19.8 10.9,25 7.8,30.3 		"/>
	</g>
	<g>
		<path class="st2" d="M47,30.8c-0.9,0-1.7-0.2-2.5-0.5c-0.8-0.3-1.4-0.7-2-1.3c-0.6-0.6-1-1.3-1.3-2.1s-0.5-1.8-0.5-2.8
			c0-1,0.2-2,0.5-2.8c0.3-0.8,0.7-1.5,1.2-2.1c0.5-0.6,1.1-1,1.9-1.3s1.5-0.5,2.3-0.5c0.6,0,1.1,0.1,1.6,0.2
			c0.5,0.1,0.9,0.3,1.3,0.6c0.4,0.2,0.6,0.5,0.8,0.7s0.3,0.5,0.3,0.6c0,0.2,0,0.3,0,0.4s-0.1,0.2-0.1,0.2c0,0.1-0.1,0.1-0.2,0.2
			c-0.1,0.1-0.2,0.2-0.3,0.2c-0.2,0.1-0.4,0.1-0.6,0c-0.2-0.1-0.4-0.2-0.7-0.4c-0.3-0.2-0.5-0.3-0.9-0.5c-0.3-0.1-0.8-0.2-1.3-0.2
			c-0.6,0-1.1,0.1-1.5,0.4s-0.8,0.6-1.1,1c-0.3,0.4-0.5,0.9-0.7,1.5S43,23.6,43,24.2c0,0.6,0.1,1.2,0.3,1.7c0.2,0.6,0.4,1.1,0.7,1.5
			c0.3,0.4,0.7,0.8,1.2,1s1.1,0.4,1.7,0.4c0.3,0,0.6-0.1,0.9-0.1c0.3-0.1,0.5-0.1,0.7-0.2c0.2-0.1,0.4-0.2,0.5-0.3
			c0.2-0.1,0.3-0.2,0.5-0.4c0.3-0.2,0.6-0.3,0.9-0.1c0.3,0.1,0.5,0.3,0.6,0.5c0.1,0.2,0.1,0.4,0.1,0.6c0,0.1-0.1,0.3-0.3,0.6
			s-0.5,0.5-0.8,0.7c-0.3,0.2-0.8,0.4-1.3,0.6S47.6,30.8,47,30.8z"/>
		<path class="st2" d="M59,29.1c-0.3,0.6-0.6,1-1,1.3s-0.9,0.3-1.5,0.3c-0.6,0-1.1-0.1-1.6-0.3s-0.9-0.5-1.3-1
			c-0.3-0.4-0.6-0.9-0.8-1.6c-0.2-0.6-0.3-1.3-0.3-2.1c0-1,0.1-1.8,0.3-2.5c0.2-0.7,0.5-1.2,0.9-1.6c0.4-0.4,0.8-0.7,1.3-0.9
			c0.5-0.2,1-0.3,1.5-0.3c0.6,0,1.1,0.2,1.5,0.5s0.8,0.8,1,1.4v-0.8c0-0.2,0.1-0.4,0.3-0.6c0.2-0.2,0.5-0.3,0.9-0.3
			c0.4,0,0.7,0.1,0.9,0.3c0.2,0.2,0.3,0.4,0.3,0.6v8c0,0.2-0.1,0.4-0.2,0.6c-0.2,0.2-0.5,0.3-0.9,0.3c-0.2,0-0.4,0-0.6-0.1
			s-0.3-0.1-0.4-0.2c-0.1-0.1-0.2-0.2-0.2-0.3c0-0.1,0-0.2,0-0.3V29.1z M54.8,25.8c0,1.1,0.2,1.9,0.6,2.4c0.4,0.5,0.9,0.7,1.6,0.7
			s1.2-0.3,1.5-0.8c0.3-0.5,0.5-1.3,0.5-2.2c0-1-0.2-1.7-0.5-2.3c-0.3-0.6-0.8-0.9-1.5-0.9c-0.7,0-1.2,0.2-1.6,0.8
			C55,23.9,54.8,24.7,54.8,25.8z"/>
		<path class="st2" d="M65.4,32.4c0,0.1,0,0.2,0,0.3c0,0.1-0.1,0.2-0.2,0.3c-0.1,0.1-0.2,0.2-0.4,0.2c-0.2,0.1-0.3,0.1-0.6,0.1
			c-0.5,0-0.8-0.1-0.9-0.3c-0.2-0.2-0.2-0.4-0.2-0.6V21.7c0-0.2,0.1-0.4,0.3-0.6c0.2-0.2,0.5-0.3,0.9-0.3c0.4,0,0.7,0.1,0.9,0.3
			s0.3,0.4,0.3,0.6v0.8c0.2-0.6,0.6-1.1,1-1.4s1-0.5,1.5-0.5c0.5,0,1,0.1,1.5,0.3c0.5,0.2,0.9,0.5,1.3,0.9c0.4,0.4,0.7,0.9,0.9,1.6
			c0.2,0.7,0.3,1.5,0.3,2.5c0,0.8-0.1,1.5-0.3,2.1c-0.2,0.6-0.5,1.1-0.8,1.6c-0.3,0.4-0.8,0.8-1.3,1s-1,0.3-1.6,0.3
			s-1.1-0.1-1.5-0.3c-0.4-0.2-0.8-0.6-1-1.3V32.4z M69.6,25.8c0-1.1-0.2-1.9-0.6-2.4s-0.9-0.8-1.6-0.8c-0.6,0-1.1,0.3-1.5,0.9
			c-0.3,0.6-0.5,1.4-0.5,2.3c0,0.9,0.1,1.7,0.5,2.2c0.3,0.5,0.8,0.8,1.5,0.8c0.7,0,1.2-0.2,1.6-0.7C69.4,27.6,69.6,26.9,69.6,25.8z"
			/>
		<path class="st2" d="M77,23v4c0,0.3,0,0.6,0,0.8c0,0.2,0.1,0.4,0.1,0.5c0.1,0.1,0.2,0.2,0.3,0.3c0.1,0,0.3,0.1,0.5,0.1
			c0.2,0,0.4-0.1,0.6-0.2s0.4-0.2,0.6-0.3c0.2-0.1,0.4-0.1,0.6,0c0.2,0.1,0.3,0.3,0.3,0.7c0,0.3-0.1,0.6-0.2,0.8
			c-0.1,0.2-0.3,0.4-0.5,0.5c-0.2,0.1-0.5,0.2-0.8,0.3s-0.6,0.1-1,0.1c-0.4,0-0.8,0-1.1-0.1c-0.3-0.1-0.7-0.2-0.9-0.4
			c-0.3-0.2-0.5-0.5-0.6-0.8c-0.1-0.3-0.2-0.8-0.2-1.3V23H74c-0.3,0-0.6-0.1-0.7-0.3c-0.1-0.2-0.2-0.5-0.2-0.8
			c0-0.4,0.1-0.6,0.2-0.8c0.1-0.2,0.3-0.2,0.6-0.2h0.8v-0.9c0-0.4,0.1-0.7,0.2-0.9c0.1-0.2,0.5-0.3,0.9-0.3c0.5,0,0.8,0.1,0.9,0.2
			c0.1,0.2,0.2,0.4,0.2,0.7v1.1h1.9c0.4,0,0.7,0.1,0.8,0.2c0.1,0.2,0.2,0.4,0.2,0.8c0,0.3-0.1,0.6-0.2,0.8S79.2,23,78.8,23H77z"/>
		<path class="st2" d="M87.8,29.1c-0.3,0.6-0.6,1-1,1.3s-0.9,0.3-1.5,0.3s-1.1-0.1-1.6-0.3s-0.9-0.5-1.3-1s-0.6-0.9-0.8-1.6
			c-0.2-0.6-0.3-1.3-0.3-2.1c0-1,0.1-1.8,0.3-2.5c0.2-0.7,0.5-1.2,0.9-1.6c0.4-0.4,0.8-0.7,1.3-0.9c0.5-0.2,1-0.3,1.5-0.3
			c0.6,0,1.1,0.2,1.5,0.5c0.4,0.3,0.8,0.8,1,1.4v-0.8c0-0.2,0.1-0.4,0.3-0.6s0.5-0.3,0.9-0.3c0.4,0,0.7,0.1,0.9,0.3
			c0.2,0.2,0.3,0.4,0.3,0.6v8c0,0.2-0.1,0.4-0.2,0.6s-0.5,0.3-0.9,0.3c-0.2,0-0.4,0-0.6-0.1s-0.3-0.1-0.4-0.2
			c-0.1-0.1-0.1-0.2-0.2-0.3c0-0.1,0-0.2,0-0.3V29.1z M83.6,25.8c0,1.1,0.2,1.9,0.6,2.4c0.4,0.5,0.9,0.7,1.6,0.7
			c0.7,0,1.2-0.3,1.5-0.8c0.3-0.5,0.5-1.3,0.5-2.2c0-1-0.2-1.7-0.5-2.3c-0.3-0.6-0.8-0.9-1.5-0.9c-0.7,0-1.2,0.2-1.6,0.8
			C83.8,23.9,83.6,24.7,83.6,25.8z"/>
		<path class="st2" d="M92.1,18.6c0-0.3,0.1-0.6,0.4-0.9s0.5-0.4,0.9-0.4s0.6,0.1,0.9,0.4s0.4,0.5,0.4,0.9c0,0.3-0.1,0.6-0.4,0.9
			c-0.2,0.2-0.5,0.4-0.9,0.4s-0.6-0.1-0.9-0.4C92.2,19.2,92.1,18.9,92.1,18.6z M94.5,29.7c0,0.2-0.1,0.4-0.3,0.6s-0.5,0.3-0.8,0.3
			s-0.6-0.1-0.8-0.3c-0.2-0.2-0.3-0.4-0.3-0.6v-7.9c0-0.4,0.1-0.6,0.4-0.8c0.2-0.2,0.5-0.3,0.8-0.3c0.3,0,0.5,0.1,0.8,0.2
			c0.2,0.2,0.4,0.4,0.4,0.8V29.7z"/>
		<path class="st2" d="M102.9,24.9c0-0.4,0-0.7-0.1-1c0-0.3-0.1-0.5-0.3-0.7c-0.1-0.2-0.3-0.3-0.5-0.4c-0.2-0.1-0.5-0.1-0.9-0.1
			c-0.3,0-0.6,0-0.8,0.1c-0.2,0.1-0.5,0.2-0.6,0.3s-0.3,0.4-0.4,0.7c-0.1,0.3-0.2,0.7-0.2,1.1v5.1c0,0.2-0.1,0.4-0.3,0.5
			c-0.2,0.1-0.5,0.2-0.8,0.2s-0.6-0.1-0.8-0.2c-0.2-0.2-0.3-0.3-0.3-0.5v-8.4c0-0.2,0.1-0.4,0.3-0.5s0.5-0.2,0.8-0.2
			s0.6,0.1,0.8,0.2c0.2,0.1,0.3,0.3,0.3,0.5v0.9c0.1-0.2,0.2-0.4,0.4-0.6c0.1-0.2,0.3-0.4,0.5-0.6c0.2-0.2,0.5-0.3,0.7-0.4
			c0.3-0.1,0.6-0.2,0.9-0.2c0.5,0,1,0.1,1.4,0.2c0.4,0.1,0.8,0.4,1.1,0.6c0.3,0.3,0.5,0.6,0.7,1.1c0.2,0.4,0.2,0.9,0.2,1.5v5.9
			c0,0.2-0.1,0.4-0.3,0.5s-0.5,0.2-0.8,0.2c-0.3,0-0.6-0.1-0.8-0.2s-0.3-0.3-0.3-0.5V24.9z"/>
		<path class="st2" d="M114.9,29.9c0,0.2-0.1,0.4-0.3,0.5c-0.2,0.2-0.5,0.2-0.9,0.2s-0.7-0.1-0.9-0.2c-0.2-0.2-0.3-0.3-0.3-0.5V18.7
			c0-0.2,0.1-0.4,0.3-0.6c0.2-0.2,0.5-0.3,0.9-0.3s0.7,0.1,0.9,0.3c0.2,0.2,0.3,0.4,0.3,0.6v3.6l4.2-4c0.3-0.3,0.6-0.5,0.9-0.5
			c0.3,0,0.5,0.1,0.9,0.4c0.2,0.3,0.3,0.5,0.3,0.8s-0.2,0.5-0.5,0.8l-4.5,4.1l4.6,4.5c0.2,0.2,0.4,0.4,0.5,0.5
			c0.1,0.2,0.2,0.3,0.3,0.4s0,0.3,0,0.4c-0.1,0.2-0.2,0.3-0.3,0.5c-0.2,0.3-0.5,0.4-0.8,0.4s-0.6-0.1-0.8-0.4l-4.6-4.9V29.9z"/>
		<path class="st2" d="M125.4,26.3c0,0.4,0,0.7,0.1,1c0,0.3,0.1,0.6,0.3,0.8c0.1,0.2,0.3,0.4,0.5,0.5c0.2,0.1,0.5,0.2,0.9,0.2
			c0.3,0,0.6,0,0.8-0.1c0.2-0.1,0.5-0.2,0.6-0.4c0.2-0.2,0.3-0.4,0.4-0.7s0.2-0.7,0.2-1.1v-4.9c0-0.2,0.1-0.4,0.3-0.5
			c0.2-0.1,0.5-0.2,0.8-0.2s0.6,0.1,0.8,0.2s0.3,0.3,0.3,0.5v8.4c0,0.2-0.1,0.4-0.3,0.5c-0.2,0.1-0.5,0.2-0.8,0.2s-0.6-0.1-0.8-0.2
			c-0.2-0.1-0.3-0.3-0.3-0.5V29c-0.1,0.2-0.2,0.4-0.4,0.6c-0.1,0.2-0.3,0.4-0.5,0.6s-0.5,0.3-0.7,0.4c-0.3,0.1-0.6,0.2-0.9,0.2
			c-0.5,0-0.9-0.1-1.3-0.2c-0.4-0.2-0.8-0.4-1.1-0.7c-0.3-0.3-0.5-0.7-0.7-1.1c-0.2-0.4-0.3-1-0.3-1.5v-5.7c0-0.2,0.1-0.4,0.3-0.5
			s0.5-0.2,0.8-0.2c0.3,0,0.6,0.1,0.8,0.2c0.2,0.1,0.3,0.3,0.3,0.5V26.3z"/>
		<path class="st2" d="M135.8,29.7c0,0.1,0,0.2,0,0.3c0,0.1-0.1,0.2-0.2,0.3c-0.1,0.1-0.2,0.2-0.4,0.2s-0.3,0.1-0.6,0.1
			c-0.5,0-0.8-0.1-0.9-0.3s-0.2-0.4-0.2-0.6V17.9c0-0.2,0.1-0.4,0.3-0.6c0.2-0.2,0.5-0.3,0.9-0.3c0.4,0,0.7,0.1,0.9,0.3
			c0.2,0.2,0.3,0.4,0.3,0.6v4.5c0.3-0.6,0.7-1.1,1.2-1.4c0.5-0.3,1-0.5,1.6-0.5c0.5,0,0.9,0.1,1.4,0.3c0.5,0.2,0.9,0.5,1.2,0.9
			c0.4,0.4,0.6,0.9,0.9,1.6c0.2,0.7,0.3,1.5,0.3,2.5c0,0.8-0.1,1.5-0.3,2.1c-0.2,0.6-0.5,1.1-0.8,1.6s-0.7,0.8-1.2,1
			c-0.5,0.2-1,0.3-1.5,0.3c-0.5,0-1-0.1-1.5-0.3s-0.9-0.6-1.2-1.3V29.7z M140,25.8c0-1.1-0.2-1.9-0.6-2.4c-0.4-0.5-0.9-0.8-1.6-0.8
			c-0.7,0-1.2,0.3-1.5,0.9c-0.3,0.6-0.5,1.4-0.5,2.3c0,0.9,0.1,1.7,0.5,2.2c0.3,0.5,0.8,0.8,1.5,0.8s1.2-0.2,1.6-0.7
			C139.8,27.6,140,26.9,140,25.8z"/>
		<path class="st2" d="M148,30.8c-0.7,0-1.4-0.1-1.9-0.4c-0.5-0.2-1-0.6-1.4-1c-0.4-0.4-0.6-1-0.8-1.6c-0.2-0.6-0.3-1.3-0.3-2.1
			c0-0.7,0.1-1.4,0.3-2.1c0.2-0.6,0.5-1.2,0.8-1.6s0.8-0.8,1.4-1.1c0.5-0.3,1.2-0.4,1.9-0.4c0.7,0,1.3,0.1,1.7,0.4s0.9,0.6,1.2,1
			c0.3,0.4,0.5,0.9,0.7,1.4c0.1,0.5,0.2,1.1,0.2,1.7c0,0.5-0.1,0.9-0.2,1.2s-0.4,0.4-0.7,0.4h-5c0,0.3,0,0.5,0.1,0.8
			c0.1,0.3,0.2,0.5,0.3,0.7c0.2,0.2,0.4,0.4,0.6,0.5c0.3,0.1,0.6,0.2,1,0.2c0.5,0,1-0.1,1.3-0.2c0.3-0.2,0.5-0.3,0.7-0.5
			c0.1-0.2,0.3-0.3,0.4-0.3c0.1,0,0.3,0,0.4,0c0.1,0,0.2,0.1,0.3,0.1c0.1,0.1,0.2,0.1,0.2,0.1c0.2,0.2,0.3,0.4,0.3,0.7
			s-0.2,0.6-0.5,0.9c-0.3,0.3-0.7,0.6-1.2,0.8S148.7,30.8,148,30.8z M149.6,24.9c0-0.3,0-0.6-0.1-0.9c0-0.3-0.1-0.5-0.3-0.7
			c-0.1-0.2-0.3-0.4-0.5-0.5c-0.2-0.1-0.5-0.2-0.8-0.2c-0.4,0-0.8,0.1-1,0.2c-0.3,0.2-0.5,0.3-0.6,0.6c-0.1,0.2-0.2,0.5-0.3,0.8
			c0,0.3-0.1,0.5-0.1,0.7H149.6z"/>
	</g>
</g>
</svg>
