<?xml version="1.0" encoding="utf-8"?>
<!-- Generator: Adobe Illustrator 21.0.2, SVG Export Plug-In . SVG Version: 6.00 Build 0)  -->
<svg version="1.1" id="圖層_1" xmlns="http://www.w3.org/2000/svg" xmlns:xlink="http://www.w3.org/1999/xlink" x="0px" y="0px"
	 viewBox="0 0 51 51" style="enable-background:new 0 0 51 51;" xml:space="preserve">
<style type="text/css">
	.st0{fill:#3766AF;}
	.st1{fill:#231815;}
	.st2{fill:#3E3A39;stroke:#3E3A39;stroke-width:0.579;stroke-linecap:round;stroke-linejoin:round;stroke-miterlimit:10;}
</style>
<g>
	<path class="st0" d="M14.2,11.7l-3.7-7.6c-0.7-1.4,0.5-2.9,2-2.6l32.2,6.3c1.6,0.3,2.7,1.9,2.3,3.6l-0.7,3c-0.3,1.4-1.6,2.4-3,2.4
		H4.5c-0.6,0-0.7-0.9-0.2-1l9.2-2.8C14.1,12.8,14.4,12.2,14.2,11.7z"/>
	<path class="st0" d="M14.5,49.6c0,0,3.6,0,3.6,0c4.7,0,9-1.8,12.1-5.3c1.5-1.7,2.7-3.7,3.7-5.8c0.7-1.5,1.2-3.1,1.9-4.5
		c0.9-1.6,2.2-2.7,3.4-4c2.7-3.1,1.7-6.8,1.7-10.4c0-0.4-0.3-0.7-0.7-0.7h-5.8c-0.4,0-0.7,0.3-0.7,0.7c0,1,0.4,2.1,0.5,3.2
		c0.1,0.6,0,1.3-0.4,1.9c-0.5,0.7-1.5,1-2.2,1.6c-0.8,0.6-1.5,1.5-2,2.4c-4,8-5.9,14.3-15.2,14.3c-1.9,0-3.4,1.5-3.4,3.4
		C11.1,48,12.6,49.6,14.5,49.6z"/>
	<polygon class="st1" points="9.7,31.3 13.3,25 17,31.3 13.3,37.6 	"/>
</g>
</svg>
